<?xml version="1.0" encoding="utf-8"?>
<!-- Generator: Adobe Illustrator 26.0.1, SVG Export Plug-In . SVG Version: 6.00 Build 0)  -->
<svg version="1.1" id="Layer_1" xmlns="http://www.w3.org/2000/svg" xmlns:xlink="http://www.w3.org/1999/xlink" x="0px" y="0px"
	 viewBox="0 0 204 75" style="enable-background:new 0 0 204 75;" xml:space="preserve">
<style type="text/css">
	.st0{display:none;fill-rule:evenodd;clip-rule:evenodd;fill:#1E1E1E;}
	.st1{fill-rule:evenodd;clip-rule:evenodd;fill:#9C7944;}
	.st2{fill:#FFFFFF;}
	.st3{fill:#F4D70A;}
	.st4{fill:#ED7224;}
	.st5{fill:#F5AA19;}
	.st6{fill:#FFD00D;}
	.st7{fill:#F2BA19;}
</style>
<rect x="-50.5" class="st0" width="305" height="75"/>
<g id="Layer_x0020_1">
	<g id="_2559665294816">
		<g>
			<polygon class="st1" points="9.4,40.5 12.8,40.5 12.8,56.1 9.4,58.1 			"/>
			<polygon class="st1" points="16.4,40.5 19.8,40.5 19.8,56.1 16.4,58.1 			"/>
			<polygon class="st1" points="23.5,40.5 26.9,40.5 26.9,56.1 23.5,58.1 			"/>
			<polygon class="st1" points="26.9,22 26.9,25.4 11.3,25.4 9.3,22 			"/>
			<polygon class="st1" points="26.9,29 26.9,32.4 11.3,32.4 9.3,29 			"/>
			<polygon class="st1" points="26.9,36.1 26.9,39.5 11.4,39.5 9.3,36.1 			"/>
		</g>
		<g>
			<path class="st2" d="M49,55.4l1.1,2.2H34.5V41.2h15.3l-1.1,2.2H37.2v4.9H47v2.2h-9.8v4.9L49,55.4L49,55.4z M55.1,41.2h17L71,43.4
				h-6v14.3h-2.8V43.4h-6L55.1,41.2L55.1,41.2z M92.6,55.4l1.1,2.2H78.1V41.2h15.3l-1.1,2.2H80.9v4.9h9.8v2.2h-9.8v4.9L92.6,55.4
				L92.6,55.4z M110.7,50.5l6,7.1l-4.1-1.1l-5-6h-4.8v6l-2.7,1.1V41.2h11.2c3.1,0,4.7,1.6,4.7,4.7c0,3.1-1.6,4.7-4.7,4.7H110.7
				L110.7,50.5z M102.8,48.4h7.9c0.7,0,1.3-0.2,1.7-0.7c0.5-0.5,0.7-1.1,0.7-1.7c0-0.7-0.2-1.2-0.7-1.7c-0.5-0.5-1.1-0.7-1.7-0.7
				h-7.9V48.4L102.8,48.4z M136.8,42.3l2.7-1.1v16.4h-2.7l-10.9-13v11.9l-2.7,1.1V41.2h2.7l10.9,13V42.3z M146.8,41.2l2.7,1.1v15.3
				l-2.7-1.1V41.2z M155.5,41.2h17l-1.1,2.2h-6v14.3h-2.8V43.4h-6L155.5,41.2L155.5,41.2z M190.9,42.3l3.8-1.1l-7.4,10.1v6.3h-2.7
				v-6.3l-7.4-10.1l3.8,1.1L186,49L190.9,42.3L190.9,42.3z"/>
			<g>
				<path class="st3" d="M105.7,34.1c-4-0.2-6-2.6-6.5-3.3c1.1,3.2,3.6,5.7,6.8,6.7c1.6-0.3,1.9-1.9,1.7-2.7
					C106.9,34.7,106.3,34.5,105.7,34.1L105.7,34.1z"/>
				<path class="st4" d="M109.2,38.1c2.2,0,4.1-0.6,5.8-1.7c-2.8,1.5-5.5-0.2-6.8-1.4c-0.2,0-0.4-0.1-0.6-0.1
					c-0.1,2-1.3,2.6-1.6,2.7C107,37.9,108.1,38.1,109.2,38.1L109.2,38.1z"/>
				<path class="st5" d="M114.2,33.1c-1.3,1.2-3.1,1.9-5,1.9c-0.3,0-0.7,0-1-0.1c2.7,2.5,5,2.3,6.7,1.4c1.3-0.8,2.4-1.9,3.2-3.2
					C117.5,33.1,114.5,33.1,114.2,33.1z"/>
				<g>
					<path class="st2" d="M39.2,27.2c1,0,1.5-0.5,1.5-1.2v0c0-0.8-0.6-1.2-1.5-1.2h-1.9v2.5H39.2L39.2,27.2z M34.5,22.3h4.8
						c1.6,0,2.6,0.4,3.3,1.1c0.6,0.6,0.9,1.4,0.9,2.4v0c0,1.6-0.8,2.6-2.1,3.2l2.5,3.6h-3.3l-2.1-3.1h0h-1.2v3.1h-2.8L34.5,22.3
						L34.5,22.3z"/>
					<path class="st2" d="M51.5,28.5l-1.1-2.9l-1.2,2.9H51.5z M49,22.2h2.8l4.4,10.3h-3.1l-0.7-1.8h-4l-0.7,1.8h-3L49,22.2z"/>
					<path class="st2" d="M61.7,30c1.7,0,2.8-0.9,2.8-2.6v0c0-1.6-1.1-2.6-2.8-2.6h-1.1V30H61.7z M57.7,22.3h4
						c3.7,0,5.8,2.1,5.8,5.1v0c0,3-2.2,5.2-5.9,5.2h-3.9L57.7,22.3L57.7,22.3z"/>
					<polygon class="st2" points="69.6,22.3 72.4,22.3 72.4,32.6 69.6,32.6 					"/>
					<path class="st2" d="M80.9,28.5l-1.1-2.9l-1.1,2.9H80.9z M78.4,22.2h2.7l4.4,10.3h-3l-0.8-1.8h-4L77,32.6h-3L78.4,22.2
						L78.4,22.2z"/>
					<polygon class="st2" points="87.1,22.3 89.8,22.3 94,27.7 94,22.3 96.8,22.3 96.8,32.6 94.3,32.6 89.9,26.9 89.9,32.6 
						87.1,32.6 					"/>
					<polygon class="st2" points="105.3,22.3 113.6,22.3 113.6,24.7 108.1,24.7 108.1,26.3 113.1,26.3 113.1,28.5 108.1,28.5 
						108.1,30.1 113.7,30.1 113.7,32.6 105.3,32.6 					"/>
					<path class="st4" d="M99.6,23c0.1,0.4,0.5,2,2.6,1.7c0.2-0.6,0.6-1.2,0.9-1.7c0.3-1.8,0.9-4.7,3-5.7
						C103.2,18.2,100.8,20.3,99.6,23z"/>
					<path class="st6" d="M99.6,23c-0.6,1.4-1,2.9-1,4.5c0,1,0.2,2.1,0.4,3c0.1-2.4,1.8-4.3,2.9-5.3c0.1-0.2,0.1-0.4,0.2-0.5
						C100.2,25.1,99.7,23.4,99.6,23L99.6,23z"/>
					<path class="st4" d="M101.6,27.5c0-0.8,0.1-1.5,0.3-2.3c-1.1,0.9-2.9,2.6-2.9,5.3c0,0.1,0.1,0.2,0.1,0.3
						c0.4,0.3,1.8,1.4,3.2-0.1C101.9,29.7,101.6,28.6,101.6,27.5L101.6,27.5z"/>
					<path class="st7" d="M102.3,30.6c-1.4,1.4-2.8,0.4-3.2,0.1l0,0.1c1.9,2.6,4.8,3.2,6.5,3.3C104.2,33.4,103,32.1,102.3,30.6
						L102.3,30.6z"/>
					<path class="st5" d="M106.1,17.3c-2.3,1.1-3.1,4.3-3,5.7c1.4-1.9,3.6-3.1,6.1-3.1c1.2,0,2.3,0.3,3.4,0.8c1.8-0.7,1.3-2.3,1-2.9
						c-1.3-0.6-2.8-1-4.4-1C108.1,16.9,107.1,17,106.1,17.3L106.1,17.3z"/>
					<path class="st6" d="M113.6,17.8c0.6,1.5-0.3,2.5-1.1,2.8c0.6,0.3,1.1,0.6,1.6,1h4C117,20,115.4,18.7,113.6,17.8z"/>
				</g>
			</g>
		</g>
	</g>
</g>
</svg>
