<?xml version="1.0" encoding="utf-8"?>
<!-- Generator: Adobe Illustrator 26.0.1, SVG Export Plug-In . SVG Version: 6.00 Build 0)  -->
<svg version="1.1" id="Layer_1" xmlns="http://www.w3.org/2000/svg" xmlns:xlink="http://www.w3.org/1999/xlink" x="0px" y="0px"
	 viewBox="0 0 305 75" style="enable-background:new 0 0 305 75;" xml:space="preserve">
<style type="text/css">
	.st0{fill-rule:evenodd;clip-rule:evenodd;fill:#0A4C80;}
	.st1{fill-rule:evenodd;clip-rule:evenodd;fill:#F26E22;}
	.st2{fill-rule:evenodd;clip-rule:evenodd;fill:#FFCE19;}
	.st3{fill-rule:evenodd;clip-rule:evenodd;fill:#F3B421;}
	.st4{fill-rule:evenodd;clip-rule:evenodd;fill:#F3E11F;}
	.st5{fill-rule:evenodd;clip-rule:evenodd;fill:#FAA920;}
	.st6{fill-rule:evenodd;clip-rule:evenodd;fill:#002A22;}
</style>
<g>
	<g>
		<path class="st0" d="M102.11,21.94c1.31,0,2.06-0.62,2.06-1.63v-0.06c0-1.08-0.81-1.64-2.09-1.64h-2.52v3.33H102.11L102.11,21.94z
			 M95.7,15.27h6.59c2.14,0,3.62,0.56,4.53,1.52c0.82,0.79,1.24,1.87,1.24,3.24v0.02c0,2.13-1.13,3.57-2.86,4.29l3.33,4.87h-4.46
			l-2.8-4.22h-0.04h-1.66v4.22H95.7V15.27z"/>
		<path class="st0" d="M118.77,23.71l-1.55-3.97l-1.57,3.97H118.77L118.77,23.71z M115.4,15.17h3.72l5.93,14.04h-4.14l-1.02-2.48
			h-5.36l-1,2.48h-4.08L115.4,15.17z"/>
		<path class="st0" d="M132.65,25.77c2.31,0,3.82-1.28,3.82-3.52v-0.04c0-2.22-1.51-3.52-3.82-3.52h-1.59v7.09H132.65L132.65,25.77z
			 M127.2,15.27h5.38c4.98,0,7.87,2.87,7.87,6.9v0.02c0,4.03-2.94,7.02-7.95,7.02h-5.3V15.27z"/>
		<rect x="143.31" y="15.27" class="st0" width="3.89" height="13.94"/>
		<path class="st0" d="M158.74,23.71l-1.56-3.97l-1.57,3.97H158.74L158.74,23.71z M155.36,15.17h3.73l5.92,14.04h-4.13l-1.04-2.48
			h-5.36l-1,2.48h-4.07L155.36,15.17z"/>
		<polygon class="st0" points="167.17,15.27 170.77,15.27 176.5,22.63 176.5,15.27 180.32,15.27 180.32,29.21 176.95,29.21 
			170.99,21.57 170.99,29.21 167.17,29.21 		"/>
		<polygon class="st0" points="191.89,15.27 203.11,15.27 203.11,18.55 195.72,18.55 195.72,20.67 202.42,20.67 202.42,23.7 
			195.72,23.7 195.72,25.92 203.21,25.92 203.21,29.21 191.89,29.21 		"/>
		<path class="st1" d="M184.1,16.23c0.09,0.53,0.63,2.74,3.51,2.29c0.33-0.85,0.76-1.62,1.29-2.33c0.31-2.43,1.28-6.33,4.08-7.7
			C189.03,9.71,185.81,12.55,184.1,16.23z"/>
		<path class="st2" d="M184.11,16.22c-0.86,1.84-1.34,3.91-1.34,6.06c0,1.43,0.21,2.82,0.6,4.12c0.07-3.33,2.41-5.85,3.98-7.16
			c0.08-0.26,0.16-0.5,0.26-0.71C184.96,19.02,184.23,16.73,184.11,16.22z"/>
		<path class="st1" d="M186.89,22.28c0-1.07,0.16-2.11,0.48-3.08c-1.54,1.17-4.02,3.54-4.03,7.15c0.05,0.13,0.09,0.27,0.13,0.37
			c0.5,0.45,2.48,1.95,4.41-0.04C187.24,25.34,186.89,23.85,186.89,22.28z"/>
		<path class="st3" d="M187.84,26.59c-1.95,1.96-3.87,0.59-4.37,0.16l0.05,0.11c2.52,3.52,6.46,4.37,8.85,4.51
			C190.39,30.33,188.79,28.64,187.84,26.59z"/>
		<path class="st4" d="M192.34,31.35c-5.42-0.31-8.16-3.58-8.81-4.5c1.45,4.33,4.89,7.72,9.22,9.12c2.18-0.37,2.6-2.52,2.25-3.65
			C194.07,32.11,193.18,31.77,192.34,31.35z"/>
		<path class="st1" d="M197.16,36.67c2.91,0,5.63-0.86,7.88-2.36c-3.85,2.01-7.5-0.34-9.28-1.86c-0.29-0.04-0.57-0.11-0.83-0.17
			c-0.1,2.71-1.73,3.48-2.21,3.67C194.11,36.42,195.62,36.67,197.16,36.67z"/>
		<path class="st5" d="M203.91,29.99c-1.81,1.57-4.18,2.54-6.76,2.54c-0.49,0-0.96-0.02-1.39-0.08c3.6,3.39,6.77,3.18,9.14,1.95
			c1.76-1.14,3.26-2.63,4.4-4.42H203.91z"/>
		<path class="st5" d="M192.94,8.53c-3.11,1.48-4.2,5.86-4.13,7.76c1.88-2.59,4.91-4.27,8.35-4.27c1.63,0,3.18,0.38,4.56,1.07
			c2.45-0.9,1.74-3.12,1.39-3.9c-1.81-0.82-3.84-1.3-5.95-1.3C195.69,7.88,194.28,8.12,192.94,8.53z"/>
		<path class="st2" d="M203.09,9.15c0.77,2.13-0.41,3.47-1.45,3.89c0.79,0.39,1.51,0.86,2.16,1.41l5.43,0.01
			C207.73,12.16,205.61,10.31,203.09,9.15z"/>
	</g>
	<g>
		<path class="st6" d="M138.64,42.07c2.27,0.05,2.43,1.64,3.59,5.13l4.57,13.08c0.41,1.23,0.81,2.21,1.17,3.3
			c0.26,0.79,1.03,2.7,1.09,3.38h4.04c0.62-2.67,2.98-7.92,3.62-10.64c0.24,0.28,0.08,0.01,0.33,0.52l3.49,10.12h4.04
			c0.39-1.68,1.59-4.65,2.21-6.51l5.75-16.37c0.51-1.31,0.76-1.96,2.47-2h-6.38c4.53,0,1.57,6.33,0.93,8.17l-5.56,15.18l-5.88-16.67
			c-1.55-4.54-3.1-6.61-0.35-6.67h-7.66c2.38,0.05,2.66,2.36,3.8,5.77c3.17,9.52,3.08,4.93-0.32,15.16c-0.3,0.9-0.75,1.92-0.93,2.68
			l-2.1-5.56c-0.37-0.99-0.6-1.82-0.96-2.87l-2.98-8.51c-1.55-4.54-3.1-6.61-0.35-6.67H138.64z"/>
		<path class="st6" d="M38.88,55.69V42.5c3.7,0,10.85-0.93,10.85,3.62c0,4.91-7.07,4.91-8.33,8.62c0.91-0.55,1.97-0.96,3.01-0.96
			c3.8,0,2.91,13.19,8.51,13.19c1.26,0,2.85-0.21,2.98-1.7c-1.11,0.09-1.79,1.19-3.47-2.7c-0.55-1.27-1-2.64-1.4-3.92
			c-1.18-3.72-0.97-4.73-3.9-5.89l-0.6-0.25c1.47-0.34,3.17-1.11,4.3-1.87c3.48-2.34,3.32-6.41-0.04-8.14
			c-1.42-0.73-3.13-0.84-5.33-0.84c-4.18,0.01-8.37,0-12.55,0v0.43c2.25,0.19,2.34,2.65,2.34,4.89c0,3.18,0.26,15.57-0.34,17.96
			c-0.28,1.1-0.73,1.58-2,1.61h8.3c-3.16-0.07-2.34-5.29-2.34-9.36V55.69z"/>
		<path class="st6" d="M237.77,66.32h-3.19V42.5c4.25,0,8.21-0.73,10.36,3.26c2.02,3.75,1.77,6.17,1.77,10.36
			c0,3.54-1.56,8.11-4.71,9.54C240.97,66.12,239.24,66.32,237.77,66.32L237.77,66.32z M228.62,42.07c2.18,0.05,2.34,2.23,2.34,4.04
			v16.59c0,2-0.36,3.78-2.34,3.83v0.43c7.95,0,17.1,1.59,20.38-5.35c1.05-2.22,1.26-4.33,1.5-7.23c0.14-1.74-0.54-5.44-1.32-7.13
			c-3.36-7.21-11.64-5.6-20.57-5.6V42.07z"/>
		<path class="st6" d="M196.36,53.35c0-3.06,0.02-5.39-2.19-8.02c-2.53-3.01-6.59-3.3-9.98-1.17c-9.28,5.83-8.34,21.74,1.32,21.74
			C191.58,65.9,196.36,58.72,196.36,53.35L196.36,53.35z M199.76,54.2c0,3.51-1.2,6.44-3.45,8.88c-7.66,8.31-21.86,2.33-21.86-8.03
			c0-2.45,0.09-3.99,1.2-6.25C181.59,36.73,199.76,40.99,199.76,54.2z"/>
		<path class="st6" d="M205.65,53.35c0-3.06-0.02-5.39,2.19-8.02c0.69-0.82,1.13-1.2,2.13-1.7c9.37-4.65,18.42,10.91,12.43,19.24
			c-3.55,4.94-9.75,3.38-13.5-1.07C207.44,60.06,205.65,56.45,205.65,53.35L205.65,53.35z M202.25,54.2
			c0,7.03,5.63,12.76,11.91,12.76c4.19,0,7-0.93,9.74-3.67c6.55-6.55,3.82-17.47-3.8-20.56C210.67,38.92,202.25,45.92,202.25,54.2z"
			/>
		<path class="st6" d="M269.46,60.79v0.85c0,4.55-9.4,7.21-14.84,0.59c-1-1.22-2.44-3.55-2.6-5.48h-0.64v6.38
			c4.73,3.16,5.86,3.83,12.12,3.83c8.77,0,11.63-10.07,4.69-13.62c-4.16-2.13-13.69-1.91-13.53-6.59c0.08-2.16,3.23-4.25,5.86-4.25
			c4.62,0,6.46,1.57,9.06,4.98c0.42,0.55,0.56,0.58,0.73,1.19h0.43c0.06-0.67,0.99-3.03,1.28-3.62c-4.55-3.04-10.17-4.59-15.44-2.47
			c-4.75,1.91-7.33,6.73-2.52,10.01c2.23,1.52,5.83,2.23,8.83,2.86C265.74,56.06,269.46,57.48,269.46,60.79z"/>
		<path class="st6" d="M91.85,42.07c1.87,0.04,2.34,1.54,2.34,3.4c0,3.04,0.37,18.38-0.42,20c-0.38,0.77-0.79,1.06-1.92,1.06
			l19.78,0.43c0.49-2.1,1.91-5.37,1.91-6.81c-0.81,0.59-1.14,2.67-4.05,4.46c-3.44,2.11-6.66,1.71-11.05,1.71
			c-0.49,0-0.64-0.15-0.64-0.64v-8.72c0-3.57,5.21-0.64,7.87-0.64c2.36,0,3.92-2.57,4.04-4.04c-0.68,0.51-0.88,1.28-2.55,1.28
			c-2.23,0-4.96-2.48-7.76-0.53c-0.7,0.49-1.07,1.13-1.6,1.8V42.5c4.75,0,8.24-0.62,11.48,1.5c1.03,0.68,2.45,2.01,2.77,3.4h0.43
			c-0.02-0.78-1.22-5.18-1.49-5.74L91.85,42.07z"/>
		<path class="st6" d="M66.32,42.07c1.53,0.13,1.88,0.76,2.31,1.94l5.69,16.22c0.47,1.37,2.12,5.69,2.2,6.73h4.04l8-22.85
			c0.4-1.19,0.96-2.01,2.43-2.04h-6.38c0.96,0,1.48,0.13,1.9,0.65c1.64,2.03-0.24,5.5-0.97,7.73l-4.94,14
			c-0.3,0.82-0.09,0.81-0.68,1.24c-0.11-1.36-1.36-4.17-1.83-5.61c-0.67-2.02-1.33-3.77-1.97-5.69c-0.62-1.88-3.86-10.56-3.86-11.25
			c0-0.89,0.67-1,1.49-1.06H66.32z"/>
		<path class="st6" d="M56.96,42.07c2.18,0.05,2.34,2.23,2.34,4.04v16.59c0,2-0.36,3.78-2.34,3.83h8.3
			c-1.24-0.03-1.65-0.44-1.96-1.45c-0.64-2.11-0.65-19.63,0.01-21.56c0.32-0.95,0.8-1.36,1.95-1.45H56.96z"/>
		<path class="st6" d="M122.12,55.64V42.45c3.7,0,10.85-0.93,10.85,3.62c0,4.91-7.07,4.91-8.33,8.62c0.91-0.55,1.97-0.96,3.01-0.96
			c3.8,0,2.91,13.19,8.51,13.19c1.26,0,2.85-0.21,2.98-1.7c-1.11,0.09-1.78,1.19-3.47-2.7c-0.55-1.27-1-2.64-1.4-3.92
			c-1.18-3.72-0.97-4.73-3.9-5.89l-0.6-0.25c1.47-0.34,3.17-1.11,4.3-1.87c3.48-2.34,3.32-6.41-0.04-8.14
			c-1.42-0.73-3.13-0.84-5.33-0.84c-4.18,0.01-8.37,0-12.55,0v0.43c2.25,0.19,2.34,2.65,2.34,4.89c0,3.18,0.26,15.57-0.34,17.96
			c-0.28,1.1-0.73,1.58-2,1.61h8.3c-3.16-0.07-2.34-5.29-2.34-9.36V55.64z"/>
	</g>
</g>
</svg>
