<?xml version="1.0" encoding="utf-8"?>
<!-- Generator: Adobe Illustrator 26.0.1, SVG Export Plug-In . SVG Version: 6.00 Build 0)  -->
<svg version="1.1" id="Layer_1" xmlns="http://www.w3.org/2000/svg" xmlns:xlink="http://www.w3.org/1999/xlink" x="0px" y="0px"
	 viewBox="0 0 204 75" style="enable-background:new 0 0 204 75;" xml:space="preserve">
<style type="text/css">
	.st0{display:none;fill-rule:evenodd;clip-rule:evenodd;fill:#1E1E1E;}
	.st1{fill:#D71921;}
	.st2{fill:none;stroke:#5D1819;stroke-width:5.654631e-02;stroke-miterlimit:10;}
	.st3{fill:#9E212A;}
	.st4{fill:none;stroke:#9E212A;stroke-width:0.2262;stroke-miterlimit:10;}
	.st5{fill:#004A80;}
	.st6{fill:#F26F21;}
	.st7{fill:#FFCA05;}
	.st8{fill:#FCB813;}
	.st9{fill:#FFDD00;}
	.st10{fill:#F9A51A;}
</style>
<rect x="-50.5" class="st0" width="305" height="75"/>
<g>
	<g>
		<path class="st1" d="M92.1,33.8"/>
		<path class="st2" d="M29.8,33.8"/>
		<path class="st2" d="M175.6,72.4"/>
		<path class="st2" d="M175.6,33.8"/>
		<path class="st1" d="M113.3,33.8"/>
		<g>
			<g>
				<g>
					<path class="st3" d="M45.5,59.7c0,2-0.8,3.7-2.4,5.2c-1.6,1.5-3.5,2.2-5.6,2.2c-2.2,0-4.1-0.7-5.6-2c-1-1-2-1.9-2.8-2.8
						c1.1-1.1,1.6-1.6,2.7-2.7c1.6,2.1,3.7,3.4,5.9,3.6c1,0.1,2-0.3,2.6-1.1c0.7-0.7,1-1.6,1-2.7c0-1.3-0.9-2.4-2.8-3.3
						c-1.7-0.9-3.6-1.7-5.2-2.7c-1.8-1.1-2.8-3.1-2.8-5.3c0-2,0.8-3.5,2.4-4.5c1.5-0.9,3.2-1.3,5.1-1.1c2.9,0.3,5.1,1.3,6.5,3
						c-1,1-1.5,1.5-2.4,2.6c-1.3-1.1-2.7-1.7-4.2-1.8c-0.8-0.1-1.5,0.1-2.1,0.5c-0.7,0.4-1.1,1-1.1,1.8c0,0.9,0.6,1.8,1.7,2.4
						c0.1,0.1,1.1,0.5,2.8,1.2c1.1,0.5,2.2,1.1,3.2,1.8c1.2,0.9,2,1.8,2.4,2.7c0.1,0.3,0.3,0.8,0.5,1.6
						C45.4,58.8,45.5,59.3,45.5,59.7z"/>
					<path class="st3" d="M72.9,56c0,3.1-1.3,5.7-3.8,7.9c-2.6,2.2-5.6,3.3-9,3.3c-3.5,0-6.5-1.1-9-3.4c-2.5-2.3-3.8-5.2-3.8-8.5
						c0-3.3,1.3-6.1,3.8-8.2c2.5-2.1,5.5-2.9,9-2.7c3.5,0.2,6.5,1.4,9,3.7C71.6,50.2,72.9,52.9,72.9,56z M68.7,55.9
						c0-2.2-0.9-4-2.5-5.6c-1.7-1.6-3.7-2.4-6.2-2.5c-2.4-0.1-4.5,0.5-6.1,2c-1.7,1.5-2.5,3.3-2.5,5.6c0,2.3,0.9,4.2,2.6,5.8
						c1.7,1.6,3.8,2.4,6.1,2.4c2.4,0,4.4-0.7,6.1-2.2C67.8,59.8,68.7,58,68.7,55.9z"/>
					<path class="st3" d="M86.5,66.6c-3.8,0-7.5,0-11.3,0c0-7.1,0-14.1,0-21.2c1.7,0.1,2.5,0.1,4.2,0.1c0,5.9,0,11.8,0,17.7
						c2.8,0,4.3,0,7.1,0C86.5,64.6,86.5,65.3,86.5,66.6z"/>
					<path class="st3" d="M93.7,66.6c-1.7,0-2.5,0-4.2,0c0-6.9,0-13.9,0-20.8c1.7,0,2.5,0,4.2,0.1C93.7,52.8,93.7,59.7,93.7,66.6z"
						/>
					<path class="st3" d="M110,49.1c-1.9,0.1-2.9,0.1-4.8,0.1c0,5.8,0,11.6,0,17.4c-1.7,0-2.5,0-4.2,0c0-5.8,0-11.6,0-17.4
						c-2,0-2.9-0.1-4.9-0.1c0.1-1.3,0.1-2,0.1-3.3c4.6,0,9.1,0,13.7,0C110,47.2,110,47.8,110,49.1z"/>
					<path class="st3" d="M135.5,66.6c-1.8,0-2.7,0-4.5,0c-0.6-1.1-0.9-1.7-1.6-2.8c-4.1,0-8.2,0-12.3,0.1c-0.6,1.1-0.8,1.6-1.4,2.7
						c-1.8,0-2.7,0-4.6,0c4.1-7.3,8.1-14.6,12.2-21.9C127.5,52,131.5,59.3,135.5,66.6z M127.6,60.6c-1.7-3.2-2.6-4.8-4.3-8
						c-1.9,3.3-2.8,4.9-4.6,8.1C122.3,60.6,124.1,60.6,127.6,60.6z"/>
					<path class="st3" d="M141.1,66.6c-1.7,0-2.5,0-4.2,0c0-7.2,0-14.4,0-21.6c1.7-0.1,2.5-0.1,4.2-0.2
						C141.1,52.1,141.1,59.4,141.1,66.6z"/>
					<path class="st3" d="M153.9,50.9c-0.7-2.1-2.6-3-5.7-2.7c0,3.8,0,5.7,0,9.5c0,3.6,0,5.3,0,8.9c-1.7,0-2.5,0-4.2,0
						c0-7.3,0-14.6,0-22c1.9-0.1,2.9-0.2,4.8-0.3c2.9-0.2,5.2,0.2,6.7,1.3c1.9,1.4,2.9,3.7,2.9,6.5c0,2.1-0.8,3.9-2.2,5.3
						c-0.6,0.6-0.9,0.9-1.5,1.5c2.2,3,3.4,4.5,5.6,7.6c-2,0-3,0-5,0c-2.2-3-4.3-6-6.6-8.9c2.6-0.4,4.2-1.6,5-3.5
						C154.2,53.1,154.3,52,153.9,50.9z"/>
					<path class="st3" d="M174.2,66.6c-3.8,0-7.5,0-11.3,0c0-7.8,0-15.6,0-23.4c3.8-0.3,7.5-0.7,11.2-1.1c0,1.7,0.1,2.6,0.1,4.4
						c-2.9,0.2-4.3,0.4-7.1,0.6c0,2,0,2.9,0,4.9c2.7-0.2,4-0.2,6.6-0.4c0,1.7,0,2.5,0,4.2c-2.7,0.1-4,0.2-6.6,0.3c0,2.5,0,3.7,0,6.2
						c2.9-0.1,4.3-0.1,7.2-0.1C174.3,63.9,174.3,64.8,174.2,66.6z"/>
				</g>
			</g>
		</g>
		<line class="st4" x1="28.7" y1="70.5" x2="174.7" y2="70.5"/>
		<polygon class="st1" points="101.5,40.9 94.8,30 90.7,30 101.4,41.1 101.4,41.1 		"/>
		<polyline class="st1" points="94.9,26.4 101.5,40.8 101.7,40.6 99,26.4 		"/>
		<polyline class="st1" points="100.4,26.4 101.8,40.6 102.1,40.6 103.6,26.4 		"/>
		<polygon class="st1" points="102.5,40.9 109.1,30 113.3,30 102.6,41.1 102.6,41.1 		"/>
		<polyline class="st1" points="109.1,26.4 102.5,40.8 102.2,40.6 105,26.4 		"/>
		<line class="st4" x1="28.4" y1="37.9" x2="95.9" y2="37.9"/>
		<line class="st4" x1="107.9" y1="37.9" x2="174.4" y2="37.9"/>
	</g>
	<g>
		<g>
			<path class="st5" d="M59.5,8.1h4.9c1.6,0,2.7,0.4,3.4,1.1c0.6,0.6,0.9,1.4,0.9,2.4v0c0,1.6-0.9,2.7-2.1,3.2l2.5,3.6h-3.3
				l-2.1-3.2h0h-1.2v3.2h-2.9V8.1z M64.3,13.1c1,0,1.6-0.5,1.6-1.2v0c0-0.8-0.6-1.2-1.6-1.2h-1.9v2.5H64.3z"/>
			<path class="st5" d="M74.2,8H77l4.4,10.5h-3.1l-0.8-1.9h-4l-0.7,1.9h-3L74.2,8z M76.8,14.4l-1.2-3l-1.2,3H76.8z"/>
			<path class="st5" d="M83.1,8.1h4c3.7,0,5.9,2.1,5.9,5.2v0c0,3-2.2,5.2-6,5.2h-4L83.1,8.1L83.1,8.1z M87.1,16c1.7,0,2.9-1,2.9-2.6
				v0c0-1.7-1.1-2.6-2.9-2.6H86V16H87.1z"/>
			<path class="st5" d="M95.1,8.1H98v10.4h-2.9V8.1z"/>
			<path class="st5" d="M104.1,8h2.8l4.4,10.5h-3.1l-0.8-1.9h-4l-0.7,1.9h-3L104.1,8z M106.7,14.4l-1.2-3l-1.2,3H106.7z"/>
			<path class="st5" d="M113,8.1h2.7l4.3,5.5V8.1h2.9v10.4h-2.5l-4.5-5.7v5.7H113L113,8.1L113,8.1z"/>
			<path class="st5" d="M131.5,8.1h8.4v2.5h-5.5v1.6h5v2.3h-5v1.7h5.6v2.5h-8.5V8.1z"/>
		</g>
		<path class="st6" d="M125.6,8.8c0.1,0.4,0.5,2.1,2.6,1.7c0.2-0.6,0.6-1.2,1-1.7c0.2-1.8,1-4.7,3.1-5.8
			C129.4,3.9,126.9,6.1,125.6,8.8z"/>
		<path class="st7" d="M125.7,8.8c-0.6,1.4-1,2.9-1,4.5c0,1.1,0.2,2.1,0.4,3.1c0.1-2.5,1.8-4.4,3-5.4c0.1-0.2,0.1-0.4,0.2-0.5
			C126.3,10.9,125.7,9.2,125.7,8.8z"/>
		<path class="st6" d="M127.7,13.3c0-0.8,0.1-1.6,0.3-2.3c-1.1,0.9-3,2.6-3,5.3c0,0.1,0.1,0.2,0.1,0.3c0.4,0.3,1.8,1.4,3.3-0.1
			C128,15.6,127.7,14.5,127.7,13.3z"/>
		<path class="st8" d="M128.5,16.6c-1.5,1.5-2.9,0.4-3.3,0.1c0,0,0,0.1,0,0.1c1.9,2.6,4.8,3.3,6.6,3.4
			C130.4,19.4,129.2,18.1,128.5,16.6z"/>
		<path class="st9" d="M131.8,20.1c-4.1-0.2-6.1-2.7-6.6-3.3c1.1,3.2,3.7,5.8,6.9,6.8c1.6-0.3,1.9-1.9,1.7-2.7
			C133.1,20.7,132.4,20.4,131.8,20.1z"/>
		<path class="st6" d="M135.4,24.1c2.2,0,4.2-0.6,5.9-1.8c-2.9,1.5-5.6-0.2-6.9-1.4c-0.2,0-0.4-0.1-0.6-0.1c-0.1,2-1.3,2.6-1.7,2.7
			C133.2,23.9,134.3,24.1,135.4,24.1z"/>
		<path class="st10" d="M140.5,19.1c-1.3,1.2-3.1,1.9-5.1,1.9c-0.4,0-0.7,0-1-0.1c2.7,2.5,5.1,2.4,6.8,1.5c1.3-0.8,2.5-2,3.3-3.3
			C143.9,19.1,140.8,19.1,140.5,19.1z"/>
		<path class="st10" d="M132.3,3c-2.3,1.1-3.2,4.4-3.1,5.8c1.4-1.9,3.7-3.2,6.2-3.2c1.2,0,2.4,0.3,3.4,0.8c1.8-0.7,1.3-2.3,1-2.9
			c-1.4-0.6-2.9-1-4.5-1C134.3,2.6,133.3,2.7,132.3,3z"/>
		<path class="st7" d="M139.9,3.5c0.6,1.6-0.3,2.6-1.1,2.9c0.6,0.3,1.1,0.6,1.6,1.1h4.1C143.3,5.8,141.8,4.4,139.9,3.5z"/>
	</g>
</g>
</svg>
